<?xml version="1.0" encoding="utf-8"?>
<!-- Svg Vector Icons : http://www.onlinewebfonts.com/icon -->
<!DOCTYPE svg PUBLIC "-//W3C//DTD SVG 1.1//EN" "http://www.w3.org/Graphics/SVG/1.1/DTD/svg11.dtd">
<svg version="1.1" xmlns="http://www.w3.org/2000/svg" xmlns:xlink="http://www.w3.org/1999/xlink" x="0px" y="0px" viewBox="0 0 1000 1000" enable-background="new 0 0 1000 1000" xml:space="preserve">
<metadata> Svg Vector Icons : http://www.onlinewebfonts.com/icon </metadata>
<g><g transform="translate(0.000000,511.000000) scale(0.100000,-0.100000)"><path d="M5016.4,4987.3c-51.2-41.3-66.9-112.2-49.2-228.3c33.5-206.7-35.4-523.6-175.2-801.1c-106.3-212.6-228.3-370.1-507.8-659.4c-287.4-299.2-393.7-448.8-486.2-679.1c-61-149.6-63-171.3-65-433c0-236.2,5.9-297.2,45.3-423.2c76.8-242.1,242.1-543.3,377.9-688.9c70.9-74.8,159.4-78.7,226.4-9.8c76.8,74.8,63,137.8-68.9,322.8c-218.5,305.1-307.1,559-289.4,828.7c19.7,299.2,114.2,472.4,446.8,816.9c281.5,291.3,364.2,391.7,500,608.2c208.7,330.7,309,645.6,311,976.3c2,222.4-23.6,342.5-82.7,374C5148.3,5018.7,5055.8,5014.8,5016.4,4987.3z"/><path d="M3451.5,4327.8l-57.1-55.1l9.8-208.7c11.8-263.8-35.4-460.6-171.3-736.2c-124-248-232.3-391.7-559-734.2c-141.7-149.6-289.4-322.8-326.8-385.8c-287.4-482.3-246.1-1051.1,116.1-1590.5c122-181.1,137.8-200.8,190.9-230.3c86.6-45.3,222.4,41.3,222.4,143.7c0,21.7-53.1,116.1-118.1,206.7c-226.4,315-307.1,547.2-291.3,838.5c17.7,316.9,102.4,466.5,500,877.9c490.1,509.8,720.4,952.7,750,1446.8c19.7,332.7-15.8,446.8-145.7,472.4C3518.5,4383,3498.8,4375.1,3451.5,4327.8z"/><path d="M6575.4,4264.9c-45.3-35.4-47.3-49.2-49.2-301.2c-2-303.1-37.4-448.8-167.3-710.6c-118.1-236.2-232.3-387.8-500-663.4c-344.5-354.3-435-486.2-525.6-757.8c-65-198.8-65-564.9,0-777.5c94.5-299.2,358.3-728.3,464.5-755.9c167.3-41.3,248,143.7,127.9,295.3c-383.8,484.2-446.8,994-173.2,1401.5c35.4,51.2,167.3,200.8,295.3,332.7c289.4,297.2,462.6,527.5,588.6,783.4c165.4,334.6,238.2,663.4,206.7,946.8c-11.8,108.3-23.6,143.7-68.9,189C6709.2,4312.1,6640.3,4318,6575.4,4264.9z"/><path d="M3689.7-8.5C1376.8-18.3,1243-20.3,1209.5-53.8c-33.5-33.5-35.4-137.8-41.3-1854.2c-5.9-1999.9-5.9-1984.1,114.2-2224.3c108.3-222.4,301.2-413.4,537.4-533.4c259.8-131.9,161.4-127.9,2497.9-122.1l2112.1,5.9l157.5,65c285.4,116.1,509.8,316.9,641.7,578.7c96.5,192.9,116.1,314.9,116.1,779.5v417.3l45.3,2c23.6,0,200.8,7.9,391.7,15.8l348.4,15.8l147.6,70.8c311,155.5,488.2,452.7,543.3,911.4c70.8,588.6-167.3,1171.2-551.2,1350.3c-161.4,74.8-285.4,94.5-620,94.5H7349l-7.9,189c-5.9,179.1-9.8,190.9-61,236.2C7225-8.5,7225-8.5,6736.8-8.5c-269.7,0-513.7,2-545.2,5.9C6160-0.6,5034.1-2.6,3689.7-8.5z M7026.1-2098.9l-5.9-1777.5l-61-127.9c-78.7-161.4-171.3-267.7-305.1-348.4c-216.5-129.9-124-126-2450.7-120.1l-2104.2,5.9l-147.6,70.9c-248,118.1-405.5,314.9-452.7,566.9c-11.8,66.9-19.7,740.1-19.7,1805v1700.7h2775.4H7032L7026.1-2098.9z M8032-817.5c277.5-59.1,433-293.3,478.3-720.4c47.2-448.8-65-844.5-277.5-980.3c-110.2-68.9-206.7-84.6-566.9-96.5l-320.8-9.8v915.3v913.3h295.3C7801.7-795.9,7978.8-805.7,8032-817.5z"/></g></g>
</svg>